<?xml version="1.0" encoding="UTF-8" standalone="no"?>
<!-- Created with Inkscape (http://www.inkscape.org/) -->

<svg
   width="75mm"
   height="74.999992mm"
   viewBox="0 0 75 74.999992"
   version="1.1"
   id="svg5"
   xml:space="preserve"
   inkscape:version="1.2.2 (732a01da63, 2022-12-09)"
   sodipodi:docname="drawing.svg"
   xmlns:inkscape="http://www.inkscape.org/namespaces/inkscape"
   xmlns:sodipodi="http://sodipodi.sourceforge.net/DTD/sodipodi-0.dtd"
   xmlns="http://www.w3.org/2000/svg"
   xmlns:svg="http://www.w3.org/2000/svg"><sodipodi:namedview
     id="namedview7"
     pagecolor="#ffffff"
     bordercolor="#000000"
     borderopacity="0.25"
     inkscape:showpageshadow="2"
     inkscape:pageopacity="0.0"
     inkscape:pagecheckerboard="0"
     inkscape:deskcolor="#d1d1d1"
     inkscape:document-units="mm"
     showgrid="false"
     inkscape:zoom="2.1089995"
     inkscape:cx="138.92843"
     inkscape:cy="672.35671"
     inkscape:window-width="2560"
     inkscape:window-height="1017"
     inkscape:window-x="-8"
     inkscape:window-y="-8"
     inkscape:window-maximized="1"
     inkscape:current-layer="layer1" /><defs
     id="defs2"><inkscape:path-effect
       effect="powerclip"
       id="path-effect663"
       is_visible="true"
       lpeversion="1"
       inverse="true"
       flatten="false"
       hide_clip="false"
       message="Use fill-rule evenodd on &lt;b&gt;fill and stroke&lt;/b&gt; dialog if no flatten result after convert clip to paths." /><inkscape:path-effect
       effect="powerclip"
       id="path-effect659"
       is_visible="true"
       lpeversion="1"
       inverse="true"
       flatten="false"
       hide_clip="false"
       message="Use fill-rule evenodd on &lt;b&gt;fill and stroke&lt;/b&gt; dialog if no flatten result after convert clip to paths." /><clipPath
       clipPathUnits="userSpaceOnUse"
       id="clipPath651"><circle
         style="display:none;fill:#ffffff;stroke-width:0.741288"
         id="circle653"
         cx="108.13043"
         cy="174.91083"
         r="11.774885"
         d="m 119.90532,174.91083 a 11.774885,11.774885 0 0 1 -11.77489,11.77488 11.774885,11.774885 0 0 1 -11.774883,-11.77488 11.774885,11.774885 0 0 1 11.774883,-11.77489 11.774885,11.774885 0 0 1 11.77489,11.77489 z" /><path
         id="lpe_path-effect659"
         style="display:inline;fill:#ffffff;stroke-width:0.741288"
         class="powerclip"
         d="m 95.4613,173.68495 h 23.41677 v 32.41366 H 95.4613 Z m 24.44402,1.22588 a 11.774885,11.774885 0 0 0 -11.77489,-11.77489 11.774885,11.774885 0 0 0 -11.774883,11.77489 11.774885,11.774885 0 0 0 11.774883,11.77488 11.774885,11.774885 0 0 0 11.77489,-11.77488 z" /></clipPath><clipPath
       clipPathUnits="userSpaceOnUse"
       id="clipPath655"><circle
         style="display:none;fill:#ffffff;stroke-width:0.741288"
         id="circle657"
         cx="108.13043"
         cy="174.91083"
         r="11.774885"
         d="m 119.90532,174.91083 a 11.774885,11.774885 0 0 1 -11.77489,11.77488 11.774885,11.774885 0 0 1 -11.774883,-11.77488 11.774885,11.774885 0 0 1 11.774883,-11.77489 11.774885,11.774885 0 0 1 11.77489,11.77489 z" /><path
         id="lpe_path-effect663"
         style="display:inline;fill:#ffffff;stroke-width:0.741288"
         class="powerclip"
         d="m 74.838708,133.24891 h 43.629652 v 72.81158 H 74.838708 Z m 45.066612,41.66192 a 11.774885,11.774885 0 0 0 -11.77489,-11.77489 11.774885,11.774885 0 0 0 -11.774883,11.77489 11.774885,11.774885 0 0 0 11.774883,11.77488 11.774885,11.774885 0 0 0 11.77489,-11.77488 z" /></clipPath></defs><g
     inkscape:label="Layer 1"
     inkscape:groupmode="layer"
     id="layer1"
     transform="translate(-59.258073,-126.67743)"><g
       id="g739"
       transform="translate(-2.483871,-6.741936)"><g
         id="g746"><rect
           style="opacity:0.1;fill:none;stroke-width:0.295622"
           id="rect674"
           width="75"
           height="75"
           x="61.741943"
           y="133.41937" /><g
           id="g731"
           transform="translate(0.52916663,2.1166667)"><path
             style="fill:#000000;stroke-width:0.264583"
             d="m 83.150102,201.06049 c 1.073642,-0.56633 1.250163,-0.89305 1.415092,-1.95228 l -0.601484,-18.31789 -3.947581,0.0444 -0.177421,-11.08872 3.504033,-0.0444 c 0,0 0.798388,-0.0443 0.754033,-0.57661 -0.04435,-0.53226 -0.503124,-20.01034 -0.503124,-20.01034 0,0 1.24658,-10.66975 14.637638,-10.86247 15.017052,-0.21613 15.237072,10.36119 15.237072,10.36119 l -0.0444,4.72129 -10.82051,0.17741 -0.16975,-2.08337 c 0,0 -0.0994,-2.51301 -3.913993,-2.4243 -3.814516,0.0887 -3.511643,2.9109 -3.511643,2.9109 l 0.354838,17.29839 5.056448,-0.0887 0.3992,11.9758 -3.947584,0.0887 c 0,0 -1.41936,-0.13306 -1.375,1.28629 0.04021,1.28662 0.589324,15.1914 0.618646,17.83566 0.006,0.53924 -0.48716,0.6714 -0.48716,0.6714 z"
             id="path298"
             sodipodi:nodetypes="ccccccscsccccscccccsscc"
             clip-path="url(#clipPath655)"
             inkscape:path-effect="#path-effect663"
             inkscape:original-d="m 83.150102,201.06049 c 1.073642,-0.56633 1.250163,-0.89305 1.415092,-1.95228 l -0.601484,-18.31789 -3.947581,0.0444 -0.177421,-11.08872 3.504033,-0.0444 c 0,0 0.798388,-0.0443 0.754033,-0.57661 -0.04435,-0.53226 -0.503124,-20.01034 -0.503124,-20.01034 0,0 1.24658,-10.66975 14.637638,-10.86247 15.017052,-0.21613 15.237072,10.36119 15.237072,10.36119 l -0.0444,4.72129 -10.82051,0.17741 -0.16975,-2.08337 c 0,0 -0.0994,-2.51301 -3.913993,-2.4243 -3.814516,0.0887 -3.511643,2.9109 -3.511643,2.9109 l 0.354838,17.29839 5.056448,-0.0887 0.3992,11.9758 -3.947584,0.0887 c 0,0 -1.41936,-0.13306 -1.375,1.28629 0.04021,1.28662 0.589324,15.1914 0.618646,17.83566 0.006,0.53924 -0.48716,0.6714 -0.48716,0.6714 z" /><path
             style="fill:#000000;stroke-width:0.311681"
             d="m 102.35865,178.68495 11.51942,1.12279 c 0,0 -0.16236,15.12352 -0.15328,15.87087 0.004,0.35113 -0.007,2.28956 -0.007,2.28956 0,0 -0.55715,3.10363 -2.71655,3.10387 -2.4693,2.7e-4 -9.22393,0.0897 -10.53994,-0.0611 1.66239,-0.31364 1.76983,-0.8085 2.0779,-1.65528 0.31987,-1.29609 0.35215,-5.09268 0.35215,-5.09268 z"
             id="path302"
             sodipodi:nodetypes="ccscscccc"
             clip-path="url(#clipPath651)"
             inkscape:path-effect="#path-effect659"
             inkscape:original-d="m 102.35865,178.68495 11.51942,1.12279 c 0,0 -0.16236,15.12352 -0.15328,15.87087 0.004,0.35113 -0.007,2.28956 -0.007,2.28956 0,0 -0.55715,3.10363 -2.71655,3.10387 -2.4693,2.7e-4 -9.22393,0.0897 -10.53994,-0.0611 1.66239,-0.31364 1.76983,-0.8085 2.0779,-1.65528 0.31987,-1.29609 0.35215,-5.09268 0.35215,-5.09268 z" /><circle
             style="fill:#000000;stroke-width:0.375155"
             id="path524-7"
             cx="108.03233"
             cy="175.24858"
             r="5.9590859" /></g></g></g></g></svg>
